<?xml version="1.0" encoding="iso-8859-1"?>
<!-- Generator: Adobe Illustrator 19.0.0, SVG Export Plug-In . SVG Version: 6.00 Build 0)  -->
<svg version="1.1" id="Capa_1" xmlns="http://www.w3.org/2000/svg" xmlns:xlink="http://www.w3.org/1999/xlink" x="0px" y="0px"
	 viewBox="0 0 512 512" style="enable-background:new 0 0 512 512;" xml:space="preserve">
<path style="fill:#E7EEEF;" d="M455.666,402.768H56.334C25.222,402.768,0,377.547,0,346.434V235.272
	c0-31.112,25.222-56.334,56.334-56.334h399.332c31.112,0,56.334,25.221,56.334,56.334v111.162
	C512,377.547,486.778,402.768,455.666,402.768z"/>
<g>
	<path style="fill:#FFFFFF;" d="M81.816,261.325c-0.886,0-1.784-0.091-2.685-0.28l-26.098-5.48
		c-7.026-1.476-11.526-8.368-10.051-15.394c1.475-7.027,8.372-11.525,15.394-10.051l26.098,5.48
		c7.026,1.476,11.526,8.368,10.051,15.394C93.239,257.119,87.835,261.325,81.816,261.325z"/>
	<path style="fill:#FFFFFF;" d="M227.498,289.277c-0.849,0.253-1.735,0.423-2.652,0.5l-26.574,2.218
		c-7.155,0.597-13.439-4.719-14.036-11.874c-0.598-7.155,4.723-13.439,11.874-14.036l26.574-2.218
		c7.155-0.597,13.439,4.719,14.036,11.874C237.24,281.979,233.266,287.555,227.498,289.277z"/>
	<path style="fill:#FFFFFF;" d="M422.078,360.546c-0.797,0.387-1.644,0.698-2.537,0.922l-25.868,6.479
		c-6.965,1.744-14.025-2.488-15.769-9.452c-1.745-6.965,2.492-14.025,9.452-15.769l25.868-6.479
		c6.965-1.744,14.025,2.488,15.769,9.452C430.514,351.77,427.492,357.914,422.078,360.546z"/>
	<path style="fill:#FFFFFF;" d="M136.081,338.952c-0.662,0.588-1.394,1.117-2.193,1.573l-23.153,13.231
		c-6.234,3.562-14.175,1.397-17.737-4.836c-3.563-6.234-1.393-14.177,4.837-17.737l23.153-13.231
		c6.234-3.562,14.175-1.397,17.737,4.837C141.83,328.222,140.582,334.955,136.081,338.952z"/>
	<path style="fill:#FFFFFF;" d="M455.666,178.938h-30.357c-5.34,3.363-7.588,10.203-4.99,16.17
		c2.866,6.583,10.525,9.596,17.108,6.731l24.451-10.643c0.844-0.368,1.629-0.814,2.351-1.326c3.068-2.179,4.988-5.559,5.386-9.188
		C465.154,179.545,460.481,178.938,455.666,178.938z"/>
	<path style="fill:#FFFFFF;" d="M318.52,232.005c-0.881,0.088-1.784,0.087-2.699-0.011l-26.514-2.852
		c-7.138-0.768-12.303-7.177-11.535-14.316s7.181-12.302,14.316-11.535l26.514,2.852c7.138,0.768,12.303,7.177,11.535,14.316
		C329.467,226.682,324.509,231.405,318.52,232.005z"/>
</g>
<path style="fill:#C06376;" d="M451.731,109.232H57.88c-12.664,0-22.93,10.266-22.93,22.929v23.847
	c0,12.664,10.266,22.93,22.93,22.93h396.24c12.664,0,22.93-10.266,22.93-22.93V134.55
	C477.05,120.567,465.714,109.232,451.731,109.232z"/>
<path style="opacity:0.1;enable-background:new    ;" d="M121.472,156.008v-23.847c0-12.664,10.266-22.929,22.929-22.929H57.88
	c-12.664,0-22.93,10.266-22.93,22.929v23.847c0,12.664,10.266,22.93,22.93,22.93h86.521
	C131.738,178.938,121.472,168.672,121.472,156.008z"/>
<path style="opacity:0.1;enable-background:new    ;" d="M89.027,178.938h21.215l69.707-69.706h-21.215L89.027,178.938z
	 M210.54,178.938h21.215l69.706-69.706h-21.215L210.54,178.938z M401.758,109.232l-69.707,69.706h21.215l69.707-69.706H401.758z"/>
<rect x="207.48" y="109.23" style="opacity:0.1;enable-background:new    ;" width="37.19" height="293.54"/>
<g>
	<rect x="220.31" y="109.23" style="fill:#485358;" width="71.38" height="293.54"/>
	<path style="fill:#485358;" d="M350.132,285.432c-4.143,0-7.5-3.357-7.5-7.5V267.2c0-4.143,3.357-7.5,7.5-7.5s7.5,3.357,7.5,7.5
		v10.732C357.632,282.074,354.274,285.432,350.132,285.432z"/>
	<path style="fill:#485358;" d="M475.979,285.432c-4.143,0-7.5-3.357-7.5-7.5V267.2c0-4.143,3.357-7.5,7.5-7.5s7.5,3.357,7.5,7.5
		v10.732C483.479,282.074,480.122,285.432,475.979,285.432z"/>
	<path style="fill:#485358;" d="M431.832,286.143c0,10.224-8.47,18.47-18.776,18.104c-9.817-0.349-17.455-8.715-17.455-18.538
		v-12.742c0-2.728,2.211-4.939,4.939-4.939h26.352c2.728,0,4.939,2.211,4.939,4.939v13.176H431.832z"/>
</g>
<path style="opacity:0.1;enable-background:new    ;" d="M121.512,346.434V235.272c0-31.113,25.222-56.334,56.334-56.334H56.334
	C25.222,178.938,0,204.159,0,235.272v111.162c0,31.112,25.222,56.334,56.334,56.334h121.512
	C146.734,402.768,121.512,377.547,121.512,346.434z"/>
<g>
</g>
<g>
</g>
<g>
</g>
<g>
</g>
<g>
</g>
<g>
</g>
<g>
</g>
<g>
</g>
<g>
</g>
<g>
</g>
<g>
</g>
<g>
</g>
<g>
</g>
<g>
</g>
<g>
</g>
</svg>
