<?xml version="1.0" encoding="iso-8859-1"?>
<!-- Generator: Adobe Illustrator 19.0.0, SVG Export Plug-In . SVG Version: 6.00 Build 0)  -->
<svg version="1.1" id="Capa_1" xmlns="http://www.w3.org/2000/svg" xmlns:xlink="http://www.w3.org/1999/xlink" x="0px" y="0px"
	 viewBox="0 0 512 512" style="enable-background:new 0 0 512 512;" xml:space="preserve">
<path style="fill:#485358;" d="M256,70.085c-4.143,0-7.5-3.358-7.5-7.5V7.5c0-4.142,3.357-7.5,7.5-7.5s7.5,3.358,7.5,7.5v55.085
	C263.5,66.727,260.143,70.085,256,70.085z"/>
<path style="fill:#E978A0;" d="M373.193,512H138.807c-4.578,0-8.289-3.711-8.289-8.289V223.468h250.964v280.243
	C381.482,508.289,377.771,512,373.193,512z"/>
<path style="fill:#C06376;" d="M130.518,488.796v14.915c0,4.578,3.711,8.289,8.289,8.289h234.386c4.578,0,8.289-3.711,8.289-8.289
	v-14.915H130.518z"/>
<g>
	<path style="fill:#485358;" d="M190.259,331.591c-4.143,0-7.5-3.358-7.5-7.5V291.7c0-4.142,3.357-7.5,7.5-7.5s7.5,3.358,7.5,7.5
		v32.391C197.759,328.233,194.401,331.591,190.259,331.591z"/>
	<path style="fill:#485358;" d="M321.741,331.591c-4.143,0-7.5-3.358-7.5-7.5V291.7c0-4.142,3.357-7.5,7.5-7.5s7.5,3.358,7.5,7.5
		v32.391C329.241,328.233,325.884,331.591,321.741,331.591z"/>
	<path style="fill:#485358;" d="M256,331.591c-4.143,0-7.5-3.358-7.5-7.5V291.7c0-4.142,3.357-7.5,7.5-7.5s7.5,3.358,7.5,7.5v32.391
		C263.5,328.233,260.143,331.591,256,331.591z"/>
	<path style="fill:#485358;" d="M381.482,299.2H130.518c-4.143,0-7.5-3.358-7.5-7.5s3.357-7.5,7.5-7.5h250.965
		c4.143,0,7.5,3.358,7.5,7.5S385.625,299.2,381.482,299.2z"/>
</g>
<path id="SVGCleanerId_0" style="fill:#4D94AE;" d="M468.454,394.43L468.454,394.43c-25.898-14.785-49.696-32.976-70.758-54.087
	l-16.214-16.251H130.518l-16.214,16.251c-21.062,21.111-44.86,39.302-70.758,54.087l0,0c-7.806,4.456-4.644,16.375,4.345,16.375
	h416.218C473.098,410.804,476.26,398.886,468.454,394.43z"/>
<g>
	<path id="SVGCleanerId_0_1_" style="fill:#4D94AE;" d="M468.454,394.43L468.454,394.43c-25.898-14.785-49.696-32.976-70.758-54.087
		l-16.214-16.251H130.518l-16.214,16.251c-21.062,21.111-44.86,39.302-70.758,54.087l0,0c-7.806,4.456-4.644,16.375,4.345,16.375
		h416.218C473.098,410.804,476.26,398.886,468.454,394.43z"/>
</g>
<path style="opacity:0.1;enable-background:new    ;" d="M130.518,324.091l-16.213,16.251
	c-21.062,21.111-44.86,39.302-70.758,54.087c-7.806,4.457-4.644,16.375,4.345,16.375h162.639c-22.162,0-18.395-14.619-12.988-20.928
	c5.408-6.309,21.18-41.458,24.904-50.471c3.725-9.012,6.189-15.314,13.913-15.314H130.518z"/>
<path style="opacity:0.2;enable-background:new    ;" d="M468.454,394.43c-6.951-3.968-13.746-8.19-20.383-12.64H63.929
	c-6.637,4.45-13.431,8.672-20.383,12.64c-7.806,4.457-4.644,16.375,4.345,16.375h416.218
	C473.098,410.804,476.26,398.886,468.454,394.43z"/>
<path style="fill:#4D94AE;" d="M409.402,168.885l-83.954-66.773c-4.03-3.205-9.027-4.95-14.176-4.95H200.729
	c-5.149,0-10.146,1.745-14.176,4.95l-83.954,66.773c-13.333,10.605-27.46,20.172-42.255,28.619l-16.797,9.589
	c-7.806,4.457-4.644,16.375,4.345,16.375h416.218c8.989,0,12.151-11.918,4.345-16.375l-16.797-9.589
	C436.862,189.058,422.734,179.49,409.402,168.885z"/>
<path style="opacity:0.2;enable-background:new    ;" d="M468.454,207.093l-16.797-9.589c-1.753-1.001-3.494-2.019-5.228-3.051
	H65.571c-1.734,1.032-3.475,2.051-5.228,3.051l-16.797,9.589c-7.806,4.457-4.644,16.375,4.345,16.375h416.218
	C473.098,223.468,476.26,211.55,468.454,207.093z"/>
<path style="opacity:0.1;enable-background:new    ;" d="M200.729,97.162c-5.149,0-10.146,1.745-14.176,4.95l-83.954,66.773
	c-13.333,10.605-27.46,20.172-42.255,28.619l-16.797,9.589c-7.806,4.457-4.644,16.375,4.345,16.375H207.46
	c-19.667,0-29.333-10.801-20-24.135c12.438-17.769,32.781-55.333,44.448-75s15.552-27.171,21.886-27.171L200.729,97.162
	L200.729,97.162z"/>
<path style="fill:#F3B7C9;" d="M303.466,97.162h-94.933V74.197c0-6.413,5.199-11.612,11.612-11.612h71.71
	c6.413,0,11.612,5.199,11.612,11.612v22.965H303.466z"/>
<path style="fill:#F3CE72;" d="M303.466,97.162h-94.933V74.197c0-6.413,5.199-11.612,11.612-11.612h71.71
	c6.413,0,11.612,5.199,11.612,11.612v22.965H303.466z"/>
<path style="opacity:0.1;enable-background:new    ;" d="M220.145,62.585c-6.413,0-11.612,5.199-11.612,11.612v22.965h41.661V74.197
	c0-6.413,5.199-11.612,11.612-11.612H220.145z"/>
<path style="opacity:0.2;enable-background:new    ;" d="M137.71,219.355c-0.832,1.27-1.226,2.699-1.224,4.112h16.465
	l80.112-122.193c0.832-1.27,1.226-2.699,1.224-4.112h-16.465L137.71,219.355z M374.29,219.355L294.178,97.162h-16.465
	c-0.001,1.413,0.392,2.842,1.224,4.112l80.112,122.193h16.465C375.516,222.055,375.122,220.626,374.29,219.355z"/>
<path style="opacity:0.2;enable-background:new    ;" d="M137.71,406.692c-0.833,1.27-1.226,2.699-1.224,4.113h16.465l54.155-82.601
	c0.833-1.27,1.226-2.699,1.224-4.113h-16.465L137.71,406.692z M374.29,406.692l-54.155-82.601H303.67
	c-0.001,1.413,0.392,2.842,1.224,4.113l54.155,82.601h16.465C375.516,409.391,375.122,407.962,374.29,406.692z"/>
<path style="fill:#EBF1EF;" d="M288.906,455.082h-65.812c-6.939,0-12.563,5.625-12.563,12.563V512h90.939v-44.355
	C301.469,460.707,295.845,455.082,288.906,455.082z"/>
<rect x="248.5" y="455.08" style="opacity:0.1;enable-background:new    ;" width="15" height="56.918"/>
<rect x="130.52" y="410.8" style="opacity:0.1;enable-background:new    ;" width="250.96" height="24.708"/>
<rect x="130.52" y="223.47" style="opacity:0.1;enable-background:new    ;" width="250.96" height="24.708"/>
<g>
</g>
<g>
</g>
<g>
</g>
<g>
</g>
<g>
</g>
<g>
</g>
<g>
</g>
<g>
</g>
<g>
</g>
<g>
</g>
<g>
</g>
<g>
</g>
<g>
</g>
<g>
</g>
<g>
</g>
</svg>
